<?xml version="1.0" encoding="UTF-8"?>
<svg version="1.1" xmlns="http://www.w3.org/2000/svg" width="48" height="48">
<path d="M0 0 C1.98 0 3.96 0 6 0 C5.50074613 9.62139108 3.49818516 18.81052096 1.4375 28.1875 C1.10421812 29.72708387 0.77153148 31.26679672 0.43945312 32.80664062 C-0.36685217 36.53928095 -1.18116146 40.27008999 -2 44 C-3.98 44 -5.96 44 -8 44 C-7.50074613 34.37860892 -5.49818516 25.18947904 -3.4375 15.8125 C-3.10421812 14.27291613 -2.77153148 12.73320328 -2.43945312 11.19335938 C-1.63314783 7.46071905 -0.81883854 3.72991001 0 0 Z " fill="#0076D4" transform="translate(25,2)"/>
<path d="M0 0 C3.73725381 0.42339259 5.67056704 2.18051492 8.3125 4.75 C9.38951172 5.76320313 9.38951172 5.76320313 10.48828125 6.796875 C12 9 12 9 11.96875 11.4921875 C10.82127585 14.46266494 9.43733735 16.12933675 7.1875 18.375 C6.50042969 19.08398438 5.81335937 19.79296875 5.10546875 20.5234375 C3 22 3 22 0.73828125 21.7265625 C-1 21 -1 21 -1.8125 19.3125 C-1.874375 18.549375 -1.93625 17.78625 -2 17 C0.4375 14.25 0.4375 14.25 3 12 C1.98110061 9.72707059 1.19097369 8.16975439 -0.6875 6.5 C-1.120625 6.005 -1.55375 5.51 -2 5 C-1.74853421 2.86254078 -1.54074221 1.54074221 0 0 Z " fill="#26ACE6" transform="translate(36,13)"/>
<path d="M0 0 C1.73828125 0.7265625 1.73828125 0.7265625 2.55078125 2.4140625 C2.61265625 3.1771875 2.67453125 3.9403125 2.73828125 4.7265625 C0.30078125 7.4765625 0.30078125 7.4765625 -2.26171875 9.7265625 C-1.24281936 11.99949191 -0.45269244 13.55680811 1.42578125 15.2265625 C1.85890625 15.7215625 2.29203125 16.2165625 2.73828125 16.7265625 C2.42578125 18.9140625 2.42578125 18.9140625 1.73828125 20.7265625 C0.0390625 21.484375 0.0390625 21.484375 -2.26171875 21.7265625 C-4.65625 20.03125 -4.65625 20.03125 -7.07421875 17.6015625 C-7.88503906 16.81523437 -8.69585938 16.02890625 -9.53125 15.21875 C-11.26171875 12.7265625 -11.26171875 12.7265625 -11.26171875 10.1953125 C-10.07863063 7.2745637 -8.67673607 5.57494713 -6.44921875 3.3515625 C-5.41861328 2.28808594 -5.41861328 2.28808594 -4.3671875 1.203125 C-2.26171875 -0.2734375 -2.26171875 -0.2734375 0 0 Z " fill="#26ACE7" transform="translate(11.26171875,13.2734375)"/>
<path d="M0 0 C2.46800047 1.15173355 4.04783565 2.04783565 6 4 C4.93283928 5.20205464 3.84561663 6.38632333 2.75 7.5625 C1.84507813 8.55443359 1.84507813 8.55443359 0.921875 9.56640625 C-1 11 -1 11 -3.234375 10.71484375 C-3.81703125 10.47894531 -4.3996875 10.24304687 -5 10 C-5.68359375 8.203125 -5.68359375 8.203125 -6 6 C-4.78515625 4.296875 -4.78515625 4.296875 -3.0625 2.75 C-2.21365234 1.96882813 -2.21365234 1.96882813 -1.34765625 1.171875 C-0.90292969 0.78515625 -0.45820312 0.3984375 0 0 Z " fill="#1796DC" transform="translate(40,24)"/>
<path d="M0 0 C3.35915158 1.43963639 5.71624938 3.12416589 8 6 C7.75 8.25 7.75 8.25 7 10 C5.234375 10.71484375 5.234375 10.71484375 3 11 C1.078125 9.56640625 1.078125 9.56640625 -0.75 7.5625 C-1.36359375 6.90378906 -1.9771875 6.24507812 -2.609375 5.56640625 C-3.06828125 5.04949219 -3.5271875 4.53257813 -4 4 C-2.68 2.68 -1.36 1.36 0 0 Z " fill="#1796DC" transform="translate(6,24)"/>
</svg>
